<?xml version="1.0" encoding="UTF-8" standalone="no"?>
<!-- Created with Inkscape (http://www.inkscape.org/) -->

<svg
   xmlns:dc="http://purl.org/dc/elements/1.1/"
   xmlns:cc="http://creativecommons.org/ns#"
   xmlns:rdf="http://www.w3.org/1999/02/22-rdf-syntax-ns#"
   xmlns:svg="http://www.w3.org/2000/svg"
   xmlns="http://www.w3.org/2000/svg"
   xmlns:sodipodi="http://sodipodi.sourceforge.net/DTD/sodipodi-0.dtd"
   xmlns:inkscape="http://www.inkscape.org/namespaces/inkscape"
   width="16"
   height="16"
   id="svg2"
   version="1.1"
   inkscape:version="0.48.4 r9939"
   sodipodi:docname="enemy.svg"
   inkscape:export-filename="/home/eric/IdeaProjects/Game-Of-Garneau/res/sprites/enemy.png"
   inkscape:export-xdpi="90"
   inkscape:export-ydpi="90">
  <defs
     id="defs4" />
  <sodipodi:namedview
     id="base"
     pagecolor="#ffffff"
     bordercolor="#666666"
     borderopacity="1.0"
     inkscape:pageopacity="0.0"
     inkscape:pageshadow="2"
     inkscape:zoom="15.839192"
     inkscape:cx="5.0462599"
     inkscape:cy="9.5101654"
     inkscape:document-units="px"
     inkscape:current-layer="layer1"
     showgrid="false"
     inkscape:window-width="1019"
     inkscape:window-height="655"
     inkscape:window-x="345"
     inkscape:window-y="62"
     inkscape:window-maximized="0" />
  <metadata
     id="metadata7">
    <rdf:RDF>
      <cc:Work
         rdf:about="">
        <dc:format>image/svg+xml</dc:format>
        <dc:type
           rdf:resource="http://purl.org/dc/dcmitype/StillImage" />
        <dc:title></dc:title>
      </cc:Work>
    </rdf:RDF>
  </metadata>
  <g
     inkscape:label="Layer 1"
     inkscape:groupmode="layer"
     id="layer1"
     transform="translate(0,-1036.3622)">
    <path
       sodipodi:type="arc"
       style="fill:#303030;fill-rule:evenodd;stroke:#000000;stroke-width:1px;stroke-linecap:butt;stroke-linejoin:miter;stroke-opacity:1;fill-opacity:1"
       id="path2985"
       sodipodi:cx="7.3551731"
       sodipodi:cy="6.6876564"
       sodipodi:rx="7.1657696"
       sodipodi:ry="7.1657696"
       d="m 14.520943,6.6876564 c 0,3.9575456 -3.208225,7.1657696 -7.1657699,7.1657696 -3.9575452,0 -7.16576957,-3.208224 -7.16576957,-7.1657696 0,-3.9575453 3.20822437,-7.16576957 7.16576957,-7.16576957 3.9406849,0 7.1418819,3.18195527 7.1656389,7.12256807 l -7.1656389,0.043201 z"
       transform="matrix(0,1,-1,0,14.484771,1036.7048)"
       sodipodi:start="0"
       sodipodi:end="6.2771564" />
    <path
       sodipodi:type="arc"
       style="fill:#ff0000;fill-rule:evenodd;stroke:#000000;stroke-width:1px;stroke-linecap:butt;stroke-linejoin:miter;stroke-opacity:1"
       id="path3758"
       sodipodi:cx="4.6088209"
       sodipodi:cy="14.169099"
       sodipodi:rx="1.4520943"
       sodipodi:ry="1.8309015"
       d="M 6.0609152,14.169099 C 6.0609152,15.180278 5.4107905,16 4.6088209,16 3.8068514,16 3.1567266,15.180278 3.1567266,14.169099 c 0,-1.011179 0.6501248,-1.830902 1.4520943,-1.830902 0.7985528,0 1.4472536,0.813011 1.4520679,1.819864 l -1.4520679,0.01104 z"
       transform="translate(0,1036.3622)"
       sodipodi:start="0"
       sodipodi:end="6.2771564" />
    <path
       sodipodi:type="arc"
       style="fill:#ff0000;fill-rule:evenodd;stroke:#000000;stroke-width:1px;stroke-linecap:butt;stroke-linejoin:miter;stroke-opacity:1"
       id="path3760"
       sodipodi:cx="11.174812"
       sodipodi:cy="14.516338"
       sodipodi:rx="1.1995561"
       sodipodi:ry="1.7361997"
       d="m 12.374368,14.516338 c 0,0.958877 -0.537059,1.7362 -1.199556,1.7362 -0.662496,0 -1.1995558,-0.777323 -1.1995558,-1.7362 0,-0.958876 0.5370598,-1.736199 1.1995558,-1.736199 0.659674,0 1.195558,0.770958 1.199535,1.725732 l -1.199535,0.01047 z"
       transform="translate(0,1036.3622)"
       sodipodi:start="0"
       sodipodi:end="6.2771564" />
  </g>
</svg>
